<?xml version="1.0" encoding="UTF-8"?>
<svg xmlns="http://www.w3.org/2000/svg" version="1.1" viewBox="0 0 512 512">
  <defs>
    <style>
      .cls-1 {
        fill: #0b0b0c;
      }
    </style>
  </defs>
  <!-- Generator: Adobe Illustrator 28.7.1, SVG Export Plug-In . SVG Version: 1.2.0 Build 142)  -->
  <g>
    <g id="Capa_1">
      <g>
        <g>
          <g>
            <path class="cls-1" d="M430,307.3c-3.1,0-6.2-1.3-8.4-3.9-3.9-4.6-3.3-11.6,1.3-15.5,6.8-5.7,10.8-15,10.7-24.8,0-9.6-3.9-18.2-10.6-23.6-4.7-3.8-5.4-10.8-1.6-15.5,3.8-4.7,10.8-5.4,15.5-1.6,11.7,9.6,18.6,24.3,18.7,40.5.1,16.5-6.6,31.8-18.5,41.8-2.1,1.7-4.6,2.6-7.1,2.6Z"/>
            <path class="cls-1" d="M475.3,334.1c-3.1,0-6.2-1.3-8.3-3.8-4-4.6-3.4-11.6,1.2-15.5,13.8-11.9,22-31.4,21.9-52.2-.2-20.4-8.1-38.6-21.7-50-4.7-3.9-5.3-10.8-1.4-15.5,3.9-4.7,10.8-5.3,15.5-1.4,18.6,15.6,29.4,39.9,29.6,66.7.2,27.1-10.8,52.9-29.5,69-2.1,1.8-4.6,2.7-7.2,2.7Z"/>
          </g>
          <g>
            <path class="cls-1" d="M82,307.3c-2.5,0-5-.8-7.1-2.6-11.9-10-18.7-25.3-18.5-41.8.1-16.2,6.9-30.9,18.7-40.5,4.7-3.8,11.6-3.1,15.5,1.6,3.8,4.7,3.1,11.6-1.6,15.5-6.6,5.4-10.5,14-10.6,23.6,0,9.8,3.9,19.1,10.7,24.8,4.7,3.9,5.2,10.8,1.3,15.5-2.2,2.6-5.3,3.9-8.4,3.9Z"/>
            <path class="cls-1" d="M36.7,334.1c-2.5,0-5.1-.9-7.2-2.7C10.8,315.4-.2,289.6,0,262.4c.2-26.9,11-51.2,29.6-66.7,4.7-3.9,11.6-3.3,15.5,1.4,3.9,4.7,3.3,11.6-1.4,15.5-13.7,11.4-21.6,29.6-21.7,50-.2,20.8,8,40.3,21.9,52.2,4.6,4,5.1,10.9,1.2,15.5-2.2,2.5-5.3,3.8-8.3,3.8Z"/>
          </g>
        </g>
        <path d="M376.4,341.8v-117.1c0-54.1-35.9-100-85.2-115.1v-19.3c0-19.4-15.8-35.2-35.2-35.2s-35.2,15.8-35.2,35.2v19.3c-49.3,15.1-85.2,61-85.2,115.1v117.1c-18.4,1-33,16.2-33,34.9v1.4c0,19.2,15.7,34.9,34.9,34.9h65.1c4.8,25.1,26.9,44,53.4,44s48.5-19,53.4-44h65.1c19.2,0,34.9-15.7,34.9-34.9v-1.4c0-18.6-14.6-33.9-33-34.9ZM256,435c-14,0-25.9-8.9-30.4-21.4h60.9c-4.5,12.4-16.5,21.4-30.4,21.4ZM242.8,104.3v-14.1c0-7.3,5.9-13.2,13.2-13.2s13.2,5.9,13.2,13.2v14.1h-26.4ZM157.6,224.7c0-54.3,44.1-98.4,98.4-98.4s98.4,44.1,98.4,98.4v117.1h-196.8v-117.1ZM387.4,378c0,7.1-5.8,12.9-12.9,12.9h-237c-7.1,0-12.9-5.8-12.9-12.9v-1.4c0-7.1,5.8-12.9,12.9-12.9h237c7.1,0,12.9,5.8,12.9,12.9v1.4Z"/>
      </g>
    </g>
  </g>
</svg>