<?xml version="1.0" encoding="UTF-8"?>
<svg xmlns="http://www.w3.org/2000/svg" version="1.1" viewBox="0 0 512 512">
  <defs>
    <style>
      .cls-1 {
        fill: #040404;
      }
    </style>
  </defs>
  <!-- Generator: Adobe Illustrator 28.7.1, SVG Export Plug-In . SVG Version: 1.2.0 Build 142)  -->
  <g>
    <g id="Capa_1">
      <g>
        <path class="cls-1" d="M18.2,338c-2.7,0-5.5-.6-8.1-1.9-6.2-3.1-10.1-9.3-10.1-16.3V77.9c0-24.9,20.2-45.1,45.1-45.1h262c24.9,0,45.1,20.2,45.1,45.1v62.8c0,6.1-4.9,11-11,11s-11-4.9-11-11v-62.8c0-12.8-10.4-23.1-23.1-23.1H45.1c-12.7,0-23.1,10.4-23.1,23.1v234.2l29.3-22.3c5.1-3.9,11.5-6,18-6h49.9c6.1,0,11,4.9,11,11s-4.9,11-11,11h-49.9c-1.7,0-3.3.6-4.7,1.6l-35.5,27c-3.2,2.5-7.1,3.7-10.9,3.7Z"/>
        <path d="M444.9,204.7H175.2c-6.1,0-11-4.9-11-11s4.9-11,11-11h269.7c6.1,0,11,4.9,11,11,0,6.1-4.9,11-11,11Z"/>
        <path class="cls-1" d="M444.9,255.6H175.2c-6.1,0-11-4.9-11-11s4.9-11,11-11h269.7c6.1,0,11,4.9,11,11s-4.9,11-11,11Z"/>
        <path d="M375,306.4h-199.8c-6.1,0-11-4.9-11-11s4.9-11,11-11h199.8c6.1,0,11,4.9,11,11,0,6.1-4.9,11-11,11Z"/>
        <path class="cls-1" d="M237.3,387.1h-62c-6.1,0-11-4.9-11-11s4.9-11,11-11h62c6.1,0,11,4.9,11,11s-4.9,11-11,11Z"/>
        <path d="M492.7,479.3c-4.1,0-8.2-1.3-11.6-3.9h0s-41.1-31.2-41.1-31.2c-1.8-1.4-4.1-2.2-6.4-2.2H158.5c-27.8,0-50.4-22.6-50.4-50.5v-211.4c0-27.8,22.6-50.5,50.4-50.5h303c27.8,0,50.4,22.6,50.4,50.5v279.9c0,7.4-4.1,14-10.7,17.3-2.7,1.4-5.7,2-8.6,2ZM158.5,151.7c-15.7,0-28.4,12.8-28.4,28.5v211.4c0,15.7,12.7,28.5,28.4,28.5h275.1c7.1,0,14.1,2.4,19.7,6.6l36.7,27.9V180.1c0-15.7-12.7-28.5-28.4-28.5H158.5Z"/>
      </g>
    </g>
  </g>
</svg>